<?xml version="1.0" standalone="no"?>
<!DOCTYPE svg PUBLIC "-//W3C//DTD SVG 20010904//EN"
 "http://www.w3.org/TR/2001/REC-SVG-20010904/DTD/svg10.dtd">
<svg version="1.0" xmlns="http://www.w3.org/2000/svg"
 width="512.000000pt" height="512.000000pt" viewBox="0 0 512.000000 512.000000"
 preserveAspectRatio="xMidYMid meet">

<g transform="translate(0.000000,512.000000) scale(0.100000,-0.100000)"
fill="#000000" stroke="none">
<path d="M2381 4349 c-128 -12 -243 -37 -389 -85 -545 -178 -976 -605 -1152
-1143 -75 -229 -102 -436 -88 -688 32 -610 400 -1186 946 -1480 371 -201 812
-266 1225 -182 367 74 734 284 978 560 67 76 119 142 119 151 0 3 -54 45 -120
93 l-121 86 -22 -28 c-230 -295 -536 -486 -900 -565 -85 -18 -135 -22 -302
-22 -174 -1 -213 2 -304 22 -608 136 -1046 579 -1178 1192 -26 121 -26 458 0
580 43 200 126 396 240 565 79 117 265 303 382 382 297 201 638 293 976 263
272 -23 518 -110 744 -263 117 -79 303 -265 382 -382 149 -221 244 -486 260
-725 l5 -85 -111 110 -111 110 -107 -108 -108 -107 295 -295 295 -295 295 295
295 295 -107 107 -108 108 -108 -108 -108 -108 -12 118 c-33 314 -130 583
-306 848 -97 145 -300 354 -446 458 -115 82 -361 205 -490 246 -251 80 -480
105 -739 80z"/>
<path d="M2380 2140 l0 -300 185 0 185 0 0 300 0 300 -185 0 -185 0 0 -300z"/>
</g>
</svg>
