<?xml version="1.0" standalone="no"?>
<!DOCTYPE svg PUBLIC "-//W3C//DTD SVG 20010904//EN"
 "http://www.w3.org/TR/2001/REC-SVG-20010904/DTD/svg10.dtd">
<svg version="1.0" xmlns="http://www.w3.org/2000/svg"
 width="470" height="270" viewBox="0 0 920.000000 600.000000"
 preserveAspectRatio="xMidYMid meet">

<g transform="translate(0.000000,600.000000) scale(0.100000,-0.100000)"
fill="#000000" stroke="none">
<path d="M7081 4630 c-17 -17 -31 -35 -31 -40 0 -12 -165 -149 -295 -245 -510
-377 -1409 -919 -2175 -1312 l-195 -101 -110 14 c-60 8 -155 28 -210 44 -55
16 -130 35 -167 42 -38 7 -68 15 -68 18 1 6 194 165 335 275 316 246 593 386
880 444 225 46 463 51 698 16 87 -13 111 -13 129 -3 21 11 18 13 -42 24 -366
69 -768 23 -1114 -125 -245 -105 -456 -246 -797 -532 l-116 -97 -64 13 c-35 7
-81 16 -102 19 -21 4 -35 11 -33 15 11 18 -93 101 -174 140 -88 42 -74 47 18
6 28 -13 52 -21 52 -18 0 3 -9 20 -20 38 l-20 32 29 39 c29 41 86 94 101 94 5
0 8 12 7 26 -2 24 5 28 148 78 610 215 1002 408 1148 565 117 127 98 215 -64
291 -129 60 -479 118 -537 89 l-27 -13 35 -3 c301 -26 533 -95 599 -179 26
-34 28 -98 3 -139 -96 -156 -469 -352 -1099 -576 -107 -38 -199 -69 -205 -69
-18 0 10 27 65 61 73 46 101 73 163 161 30 42 69 85 87 96 140 82 176 101 205
107 30 6 39 15 27 27 -3 3 -28 1 -56 -4 -28 -5 -53 -7 -56 -4 -3 2 18 16 46
30 28 15 51 33 51 41 0 20 -15 19 -83 -4 -32 -10 -57 -15 -57 -11 0 11 43 47
78 64 20 10 32 24 32 36 0 28 -24 25 -88 -11 -53 -30 -54 -30 -47 -7 4 13 20
35 36 49 30 27 38 49 17 49 -24 0 -78 -40 -90 -65 l-12 -26 -12 31 c-9 19 -20
30 -33 30 -17 0 -20 -5 -15 -30 4 -16 2 -42 -4 -57 -6 -16 -13 -54 -17 -85 -3
-32 -14 -67 -23 -78 -9 -11 -68 -42 -130 -70 -63 -27 -128 -60 -145 -73 -18
-13 -47 -32 -66 -41 -39 -21 -51 -12 -51 42 0 19 -5 32 -13 32 -7 0 -48 -18
-91 -40 -46 -24 -92 -40 -112 -40 -38 0 -37 4 13 55 13 12 23 30 23 39 0 9 5
16 11 16 7 0 9 10 5 26 -5 19 -2 30 10 39 16 11 16 16 4 46 -8 19 -13 60 -12
99 3 83 -16 116 -98 169 -130 84 -255 73 -344 -31 -33 -38 -56 -90 -56 -129 0
-8 11 -38 25 -65 14 -27 25 -65 25 -86 0 -31 7 -43 53 -83 28 -26 43 -42 32
-34 -11 7 -34 26 -51 42 -36 33 -67 33 -72 -1 -3 -16 4 -25 23 -32 28 -10 83
-50 71 -50 -4 0 -25 9 -46 20 -35 18 -43 19 -63 6 -12 -7 -44 -22 -72 -31 -37
-14 -69 -38 -123 -93 -77 -78 -80 -87 -57 -147 4 -11 -3 -5 -16 12 -13 18 -27
33 -31 33 -4 0 -12 -18 -18 -39 -6 -24 -18 -42 -29 -46 -10 -3 -24 -19 -31
-35 -7 -16 -18 -35 -26 -41 -21 -17 -17 -28 12 -39 26 -10 26 -11 9 -38 -31
-49 -123 -166 -149 -191 -27 -25 -25 -27 -41 24 -2 8 -16 20 -30 25 -50 19
-74 -12 -90 -118 -4 -24 -9 -41 -12 -39 -2 3 0 27 4 53 10 54 -11 130 -40 148
-20 13 -55 -17 -83 -70 -14 -26 -24 -34 -39 -30 -11 3 -50 8 -87 12 -59 6 -68
4 -74 -10 -11 -28 17 -46 88 -58 l65 -11 -13 -26 c-18 -35 -18 -45 6 -66 15
-14 25 -16 42 -8 18 8 33 3 81 -28 33 -21 68 -41 78 -44 27 -9 24 -16 -22 -50
-58 -43 -164 -157 -206 -223 -54 -83 -116 -252 -94 -252 21 0 41 34 64 110 38
124 129 258 238 350 l50 42 58 -16 c31 -9 73 -16 92 -16 33 0 35 -2 54 -63 19
-60 21 -62 57 -65 l37 -3 3 68 c3 61 0 75 -32 135 -43 83 -39 93 53 123 42 13
84 36 116 64 l51 42 30 -35 c23 -26 57 -45 126 -72 53 -20 130 -59 172 -86
119 -78 255 -192 279 -235 l22 -39 -82 -41 c-226 -112 -515 -172 -831 -173
-95 -1 -125 -4 -141 -16 -18 -15 -6 -16 155 -11 304 10 564 68 799 178 57 27
105 49 107 49 1 0 7 -15 14 -34 6 -18 26 -51 45 -73 l34 -40 -132 -41 c-234
-73 -419 -112 -531 -112 -39 0 -69 -5 -82 -15 -17 -13 -15 -14 36 -15 122 0
283 34 542 117 l177 56 50 -26 c27 -15 68 -34 91 -42 39 -14 43 -13 70 6 23
18 36 20 73 15 33 -5 58 -2 98 13 76 29 71 19 -8 -16 -90 -40 -150 -95 -198
-183 -38 -69 -71 -100 -163 -154 -9 -5 -27 24 -64 101 -28 59 -56 111 -62 116
-6 4 -51 4 -101 1 -54 -3 -101 -2 -117 4 -21 9 -29 7 -42 -7 -14 -16 -14 -19
0 -40 21 -29 13 -47 -25 -54 -39 -8 -52 -48 -26 -78 16 -16 17 -26 8 -64 l-10
-44 46 -4 46 -3 -47 -2 c-38 -2 -50 -7 -59 -24 -7 -13 -36 -48 -66 -79 -43
-45 -58 -55 -78 -51 -34 6 -55 -14 -55 -52 0 -47 -25 -76 -65 -76 -43 0 -51
-13 -35 -60 12 -37 7 -91 -8 -89 -4 1 -18 1 -31 0 -21 -1 -23 -4 -16 -34 3
-17 8 -52 11 -77 9 -81 13 -91 50 -106 60 -25 94 -11 220 92 64 52 144 110
177 130 129 76 284 152 332 163 31 8 86 37 145 76 96 64 368 202 448 227 28 9
41 17 37 26 -21 55 -21 55 99 137 l115 78 42 -27 c22 -15 60 -47 83 -71 91
-97 221 -150 406 -166 63 -6 143 -16 177 -24 67 -16 392 -113 406 -122 5 -3
20 -31 34 -62 31 -71 48 -89 102 -113 55 -23 69 -19 73 24 3 28 7 33 30 33 32
0 43 10 43 38 0 15 20 36 60 67 33 25 61 49 62 54 1 4 5 11 9 14 4 4 4 1 0 -5
-9 -16 -2 -16 46 -3 39 11 59 43 39 63 -8 8 -11 8 -11 0 0 -7 -15 -22 -32 -34
l-33 -22 32 32 c34 33 38 42 48 113 3 26 12 51 20 55 15 9 21 32 12 53 -3 8
-8 27 -11 42 -14 61 -91 56 -143 -8 -54 -68 -85 -94 -134 -111 -43 -15 -47
-19 -27 -24 13 -3 -12 -5 -54 -3 -88 3 -74 -4 -282 146 -184 134 -343 213
-392 194 -34 -13 10 -49 129 -106 114 -54 270 -140 255 -140 -21 0 -474 223
-524 258 -32 23 -84 52 -115 66 l-56 24 -79 -60 -79 -61 80 75 c102 96 159
184 157 244 -4 82 -30 117 -100 133 -24 5 -45 11 -46 13 -1 1 -7 15 -14 30
l-11 27 297 150 c666 337 1618 915 2107 1281 206 154 351 288 332 306 -3 3
-19 -9 -36 -26z m-4078 -796 c37 -44 30 -44 -13 1 -19 19 -30 35 -24 34 5 0
22 -16 37 -35z m282 -264 c8 -16 40 -57 70 -91 54 -60 113 -165 100 -177 -10
-10 -53 48 -60 79 -3 14 -29 57 -56 95 -51 69 -84 124 -75 124 3 0 12 -13 21
-30z m-702 -376 c-9 -14 -39 -43 -67 -63 -76 -56 -87 -59 -31 -10 27 24 63 56
80 71 38 34 40 34 18 2z m557 -79 c39 -19 70 -38 70 -40 0 -5 -139 62 -149 71
-13 12 18 0 79 -31z m380 -42 c-118 -26 -166 -42 -203 -67 -30 -21 -35 -22
-25 -6 7 10 28 26 48 35 38 17 193 54 225 53 11 0 -9 -7 -45 -15z m-1534 -75
c-19 -27 -21 -19 -4 18 7 14 14 21 16 15 2 -6 -4 -21 -12 -33z m221 -20 c-2
-13 -4 -5 -4 17 -1 22 1 32 4 23 2 -10 2 -28 0 -40z m-27 28 c-6 -6 -18 -5
-32 2 -22 10 -21 10 9 9 19 -1 28 -6 23 -11z m0 -24 c0 -5 -7 -17 -15 -28 -14
-18 -14 -17 -4 9 12 27 19 34 19 19z m-133 -34 c-3 -7 -5 -2 -5 12 0 14 2 19
5 13 2 -7 2 -19 0 -25z m2287 -75 c-47 -76 -60 -87 -39 -38 13 34 60 95 72 95
2 0 -13 -26 -33 -57z m-2039 5 c-7 -44 -20 -68 -37 -68 -5 0 -3 7 5 15 9 8 18
33 22 55 4 22 9 40 12 40 3 0 2 -19 -2 -42z m-61 -67 c-2 -3 -12 3 -22 13 -16
17 -16 18 5 5 12 -7 20 -15 17 -18z m1931 -319 c-6 -5 -68 -53 -140 -107 -71
-54 -149 -114 -172 -133 -24 -19 -43 -32 -43 -29 0 10 215 184 285 230 64 43
93 59 70 39z m456 -168 c-15 -59 -52 -156 -57 -151 -3 2 10 55 28 118 18 63
34 106 36 95 2 -10 -1 -38 -7 -62z m-743 29 c17 -3 32 -9 32 -13 0 -6 -123 12
-170 25 -19 5 94 -4 138 -12z m-685 -164 c-18 -107 -49 -164 -136 -258 -128
-136 -160 -185 -242 -366 -42 -93 -87 -145 -124 -144 -24 1 -23 2 6 10 18 5
44 25 59 45 l27 35 -21 22 c-14 15 -19 30 -15 45 5 19 10 22 39 16 31 -6 33
-4 40 30 5 27 2 42 -10 55 -23 26 -20 51 7 51 12 0 31 7 41 15 18 14 18 16 2
34 -16 17 -16 20 -1 35 9 9 27 16 39 16 15 0 56 32 119 93 95 91 97 93 85 123
-6 17 -8 43 -4 57 5 22 12 27 36 27 40 0 50 33 20 65 -35 37 -20 64 41 74 3 1
0 -36 -8 -80z m607 27 c0 -2 -8 -10 -17 -17 -16 -13 -17 -12 -4 4 13 16 21 21
21 13z m764 -65 c75 -33 150 -63 167 -66 52 -12 26 -15 -35 -5 -33 5 -86 22
-120 38 -61 29 -167 91 -155 92 4 0 68 -27 143 -59z m-635 -4 c-6 -14 -34 -33
-71 -50 -34 -15 -58 -24 -55 -20 6 6 130 91 134 92 2 1 -2 -9 -8 -22z m996
-73 c24 -11 25 -13 5 -8 -14 4 -38 13 -55 20 -24 11 -25 13 -5 8 14 -4 39 -13
55 -20z m-128 -10 c-3 -3 -12 -4 -19 -1 -8 3 -5 6 6 6 11 1 17 -2 13 -5z
m-2171 -615 c19 -22 19 -22 -3 -10 -13 6 -23 16 -23 21 0 15 5 12 26 -11z"/>
<path d="M6240 3697 c0 -6 26 -22 58 -35 84 -32 201 -112 265 -181 119 -129
152 -263 113 -456 -5 -24 -3 -22 11 10 12 29 17 70 17 150 0 92 -3 119 -22
167 -50 124 -164 237 -316 314 -90 45 -126 54 -126 31z"/>
<path d="M7226 3512 c-2 -4 2 -32 11 -62 18 -70 12 -185 -15 -262 -29 -81 -81
-163 -158 -249 l-66 -74 68 70 c119 121 183 236 203 366 11 67 9 97 -11 177
-10 40 -21 52 -32 34z"/>
<path d="M5748 3471 c-177 -57 -277 -194 -266 -365 6 -97 43 -170 124 -246 89
-82 148 -104 284 -105 98 0 109 2 171 33 85 41 168 128 200 209 32 81 32 199
0 265 -30 63 -93 132 -147 164 -108 63 -253 81 -366 45z m218 -20 c8 -18 21
-31 40 -35 60 -15 113 -55 125 -94 21 -71 11 -91 -55 -118 l-60 -24 -77 37
-77 38 -10 60 c-11 68 -11 67 68 97 25 9 37 17 27 18 -10 0 -37 -9 -60 -20
-57 -28 -212 -36 -222 -13 -8 23 6 33 82 59 45 16 92 24 138 24 69 0 71 -1 81
-29z m-307 -60 c8 -15 3 -33 -22 -82 -17 -35 -38 -68 -45 -72 -7 -5 -29 -22
-48 -39 -42 -37 -52 -23 -29 42 18 51 55 104 99 142 37 33 33 32 45 9z m551
-73 c35 -48 64 -138 55 -168 -4 -12 -15 -20 -28 -21 l-22 0 21 -9 c12 -4 24
-15 27 -24 16 -41 -74 -216 -111 -216 -14 0 -16 8 -14 55 3 43 12 67 38 106
19 28 34 62 34 76 0 28 -22 74 -44 92 -9 8 -16 29 -16 50 0 20 -4 51 -9 69 -9
30 -8 32 15 32 17 0 33 -13 54 -42z m-254 -119 l54 -31 0 -72 0 -72 -64 -37
-64 -38 -76 35 c-75 34 -76 36 -78 73 l-1 38 -6 -41 c-4 -30 -15 -49 -44 -74
l-38 -33 -39 18 c-61 28 -72 46 -78 128 l-4 73 40 32 c22 18 43 32 47 32 18 0
115 -67 115 -80 1 -10 4 -9 9 4 11 29 120 88 149 81 13 -3 48 -20 78 -36z
m132 -202 c42 -11 42 -11 42 -58 0 -40 -4 -51 -30 -73 -17 -14 -53 -34 -81
-43 -38 -14 -49 -22 -46 -35 6 -23 -44 -33 -127 -25 -77 8 -126 25 -126 44 0
14 16 15 118 11 64 -2 101 -2 82 1 -35 6 -35 7 -38 62 l-3 56 68 41 c37 23 75
39 83 36 8 -3 34 -10 58 -17z m-539 -10 c6 -8 28 -22 50 -31 21 -10 43 -28 49
-41 6 -12 24 -38 41 -57 44 -51 26 -66 -32 -27 -43 28 -97 92 -126 147 -13 24
0 30 18 9z"/>
<path d="M6156 3462 c-2 -4 17 -16 44 -25 28 -10 73 -39 104 -68 68 -62 73
-56 9 12 -62 67 -141 107 -157 81z"/>
<path d="M6276 3455 c-3 -9 3 -19 15 -26 60 -31 118 -102 141 -169 6 -19 7
-16 3 14 -6 55 -51 123 -106 163 -38 27 -48 30 -53 18z"/>
<path d="M6656 2975 c-9 -26 -7 -32 5 -12 6 10 9 21 6 23 -2 3 -7 -2 -11 -11z"/>
<path d="M6460 2693 c-278 -7 -833 -46 -1240 -89 -215 -22 -644 -75 -649 -80
-12 -11 331 7 954 51 828 59 1307 77 1730 67 116 -2 208 -2 205 1 -12 13 -250
37 -457 47 -206 9 -263 10 -543 3z"/>
<path d="M6110 2590 c-177 -12 -450 -39 -620 -60 -142 -17 -143 -18 -65 -19
44 0 235 11 425 25 191 13 493 28 675 31 219 5 315 10 285 15 -67 12 -556 18
-700 8z"/>
<path d="M5802 2046 c1 -29 4 -34 15 -25 17 15 17 34 -2 49 -12 10 -14 7 -13
-24z"/>
</g>
</svg>
