<?xml version="1.0" standalone="no"?>
<!DOCTYPE svg PUBLIC "-//W3C//DTD SVG 20010904//EN"
 "http://www.w3.org/TR/2001/REC-SVG-20010904/DTD/svg10.dtd">
<svg version="1.0" xmlns="http://www.w3.org/2000/svg"
 width="1600.000000pt" height="1200.000000pt" viewBox="0 0 1600.000000 1200.000000"
 preserveAspectRatio="xMidYMid meet">

<g transform="translate(0.000000,1200.000000) scale(0.100000,-0.100000)"
fill="#000000" stroke="none">
<path d="M10962 11208 c-7 -7 -12 -36 -12 -66 0 -108 -41 -336 -95 -522 -186
-646 -450 -1146 -900 -1701 -312 -385 -733 -742 -1465 -1242 -433 -296 -610
-443 -707 -589 -57 -87 -131 -252 -208 -463 -101 -280 -172 -402 -308 -532
-121 -114 -316 -197 -355 -150 -19 23 -6 39 56 74 110 60 191 149 255 278 19
39 72 187 117 330 130 412 187 552 306 741 169 270 339 447 823 854 422 355
463 391 610 535 481 470 771 898 853 1260 25 109 30 333 9 405 -35 123 -88
193 -203 270 -92 62 -148 81 -173 60 -13 -11 -11 -19 14 -64 74 -129 91 -306
46 -475 -86 -321 -295 -686 -608 -1063 -242 -292 -360 -406 -862 -838 -594
-509 -748 -687 -898 -1041 -56 -131 -97 -267 -187 -622 -78 -311 -119 -414
-179 -454 -19 -13 -44 -23 -57 -23 -36 0 -91 62 -109 123 -90 312 -4 686 240
1048 87 128 146 202 317 395 371 419 454 537 499 712 55 217 -23 442 -188 539
-83 48 -50 61 95 38 229 -38 464 13 589 128 50 46 68 76 82 137 16 72 -21 123
-47 65 -19 -42 -87 -83 -169 -101 -72 -16 -83 -16 -182 0 -145 24 -260 54
-501 131 -454 145 -549 167 -740 169 -149 1 -211 -16 -276 -76 -48 -44 -62
-86 -45 -131 8 -21 8 -29 -2 -32 -6 -2 -71 -5 -144 -7 l-132 -3 -31 85 c-43
121 -33 114 -128 99 l-82 -12 21 -31 c30 -46 60 -114 62 -142 2 -23 -5 -28
-68 -48 -95 -31 -187 -79 -236 -123 -42 -38 -99 -137 -99 -173 0 -20 1 -20 38
-4 106 45 294 94 363 94 l32 0 -7 -64 c-3 -35 -13 -86 -21 -115 -18 -58 -21
-60 -130 -63 -65 -3 -70 -5 -73 -26 -5 -32 14 -51 76 -79 l54 -23 -33 -58
c-40 -71 -100 -151 -115 -152 -6 0 -19 8 -28 19 -9 10 -44 31 -78 46 -54 24
-70 27 -137 23 -69 -4 -90 -11 -219 -73 -138 -65 -145 -67 -198 -61 -54 6 -55
6 -49 -16 13 -42 35 -67 78 -90 36 -20 57 -23 142 -23 l100 0 95 52 c105 56
199 86 233 74 21 -8 20 -10 -16 -43 -21 -19 -96 -70 -167 -112 -136 -80 -215
-148 -243 -209 -19 -40 -22 -131 -6 -174 22 -60 100 -112 166 -113 l33 0 -6
44 c-9 61 15 105 98 179 88 78 112 121 106 197 l-4 56 65 51 65 52 32 -59 c49
-93 89 -136 156 -169 83 -42 143 -42 226 0 81 40 155 121 178 194 10 30 15 57
12 60 -3 3 -29 -10 -57 -30 -29 -19 -70 -40 -90 -46 -38 -11 -39 -11 -109 48
-78 66 -121 83 -207 83 l-57 0 16 23 c9 12 43 63 76 112 32 50 65 98 72 108 9
12 47 23 133 37 66 11 161 30 212 41 123 28 283 24 359 -10 61 -26 123 -87
158 -155 34 -65 37 -187 6 -270 -66 -174 -213 -322 -757 -757 -509 -409 -677
-577 -889 -895 -67 -101 -182 -347 -223 -480 -107 -342 -102 -730 15 -1053
206 -568 704 -966 1563 -1247 263 -87 514 -144 881 -202 l45 -7 27 -80 c15
-44 37 -127 49 -185 41 -195 26 -467 -32 -613 -7 -15 -9 -30 -6 -33 14 -14
119 58 195 134 48 48 84 77 87 70 2 -7 11 -62 20 -123 73 -481 228 -997 416
-1381 32 -66 59 -130 59 -141 0 -11 -11 -30 -24 -42 -22 -21 -31 -23 -82 -16
-32 4 -106 24 -164 45 -189 68 -347 93 -431 70 -60 -17 -89 -51 -89 -105 l0
-45 -77 0 c-93 0 -143 -20 -190 -73 -53 -60 -56 -135 -8 -183 33 -33 47 -30
70 14 29 54 105 92 200 99 89 7 95 -2 31 -46 -111 -77 -92 -228 32 -251 40 -7
40 -7 47 26 28 150 324 226 880 227 430 1 667 -48 727 -149 11 -19 26 -34 32
-34 22 0 95 59 126 102 24 32 30 51 30 90 0 56 -18 89 -63 116 -70 41 -99 45
-327 52 -261 7 -284 13 -354 91 -114 127 -261 654 -340 1214 -28 198 -43 385
-31 385 4 0 19 -8 33 -19 85 -59 240 -111 334 -111 46 0 109 22 108 38 -1 4
-38 36 -83 72 -220 176 -366 450 -408 768 -11 82 -7 332 6 407 6 28 -2 37
-137 150 -167 141 -393 365 -523 520 -152 180 -264 358 -325 517 -33 85 -70
248 -70 310 0 125 25 117 79 -24 53 -137 161 -350 232 -455 109 -164 251 -316
580 -622 400 -371 525 -525 631 -781 62 -149 104 -413 92 -575 -7 -90 2 -109
35 -76 63 63 103 419 70 634 -33 218 -110 415 -247 627 -73 113 -316 356 -572
571 -352 295 -566 524 -655 702 -27 54 -32 73 -24 88 5 10 14 19 19 19 6 0 56
-46 113 -103 198 -198 421 -349 647 -436 196 -76 451 -109 597 -78 158 34 350
134 478 250 102 92 100 93 -127 100 -259 8 -471 42 -708 114 -197 59 -440 171
-440 203 0 14 13 18 73 23 104 9 221 41 306 84 114 59 231 175 231 229 0 18
-9 19 -187 16 -131 -2 -218 1 -287 12 -54 8 -100 17 -103 20 -3 3 -3 12 0 19
4 10 29 17 79 22 215 20 386 79 539 186 103 73 201 239 140 239 -11 0 -88 -13
-173 -29 -263 -50 -299 -54 -438 -55 -114 -1 -135 1 -135 14 0 11 34 24 123
46 274 70 467 154 586 256 84 72 148 226 101 244 -8 4 -59 -11 -112 -32 -295
-114 -688 -202 -688 -154 0 10 28 25 80 42 418 144 643 286 725 460 30 64 40
147 21 177 -13 20 -34 13 -222 -72 -213 -96 -397 -161 -416 -145 -23 19 -63
-9 574 412 230 152 355 243 623 454 340 268 693 637 1002 1047 298 396 560
893 670 1270 33 116 32 298 -4 407 -30 90 -82 186 -133 246 -45 52 -68 65 -83
50z m-4120 -1974 c140 -27 178 -38 178 -54 0 -5 -10 -10 -22 -10 -13 0 -70
-11 -128 -25 -130 -31 -179 -32 -213 -5 -31 24 -44 78 -27 109 13 25 3 25 212
-15z m-446 -199 c66 -27 50 -86 -34 -129 -49 -25 -199 -66 -240 -66 -19 0 -23
4 -17 18 12 29 35 145 35 176 l0 29 112 -7 c61 -4 126 -13 144 -21z m37 -1878
c3 -8 -12 -40 -32 -73 -128 -201 -222 -440 -273 -694 -41 -204 -26 -489 38
-721 126 -457 376 -783 846 -1105 114 -77 57 -86 -124 -18 -681 256 -1090 796
-1091 1444 -1 240 43 414 159 637 87 165 171 280 304 415 122 124 160 149 173
115z"/>
<path d="M11313 10423 c-145 -408 -407 -877 -701 -1253 -117 -150 -172 -212
-460 -520 -127 -137 -148 -171 -111 -178 54 -10 732 624 960 898 218 260 326
425 362 547 9 29 21 97 27 150 18 155 -18 373 -61 373 -5 0 -12 -8 -16 -17z"/>
<path d="M10123 10333 c-9 -3 -13 -30 -13 -86 0 -268 -149 -642 -390 -982
-244 -343 -466 -568 -990 -1005 -383 -319 -504 -425 -653 -571 -124 -120 -138
-138 -135 -165 6 -54 34 -42 186 79 130 105 426 320 677 493 366 251 756 606
1000 909 154 192 336 480 396 626 95 234 93 458 -6 628 -38 64 -54 81 -72 74z"/>
<path d="M11130 9362 c-387 -490 -923 -975 -1550 -1404 -122 -83 -377 -246
-472 -301 -27 -15 -48 -29 -48 -31 0 -2 10 -25 21 -51 31 -70 24 -198 -15
-273 -15 -30 -25 -56 -22 -59 10 -10 429 243 650 394 614 419 1094 878 1351
1293 144 233 242 478 211 528 -17 28 -45 7 -126 -96z"/>
<path d="M10697 8285 c-106 -122 -454 -428 -652 -575 -276 -205 -600 -405
-888 -546 -73 -37 -96 -52 -91 -64 3 -8 8 -40 11 -70 7 -74 -18 -171 -62 -237
-19 -29 -35 -58 -35 -64 0 -17 31 -4 275 116 406 199 676 375 959 624 320 282
561 628 578 831 3 31 0 35 -22 38 -19 2 -36 -10 -73 -53z"/>
<path d="M10330 7367 c-321 -278 -773 -540 -1210 -702 l-114 -42 -13 -88 c-16
-112 -56 -198 -124 -270 -59 -63 -54 -67 55 -40 422 107 890 377 1211 699 186
187 310 372 322 481 5 39 3 45 -13 45 -11 0 -62 -37 -114 -83z"/>
<path d="M10040 6604 c-297 -219 -736 -413 -1121 -494 l-106 -23 -6 -65 c-4
-35 -16 -84 -28 -109 -30 -62 -109 -145 -190 -199 -38 -25 -69 -48 -69 -51 0
-12 139 6 255 32 232 52 565 195 775 333 308 202 620 530 586 617 -3 8 -9 15
-13 15 -4 0 -42 -25 -83 -56z"/>
<path d="M9520 5839 c-226 -116 -451 -196 -660 -234 -52 -9 -101 -19 -108 -21
-29 -9 2 -22 80 -35 104 -17 550 -19 589 -2 28 12 165 176 224 268 36 56 45
96 23 94 -7 0 -74 -32 -148 -70z"/>
<path d="M8056 5111 c-9 -14 135 -135 434 -363 232 -178 308 -242 443 -376
149 -147 222 -237 352 -432 187 -282 269 -465 344 -769 42 -168 56 -277 56
-446 0 -165 -12 -260 -56 -437 -35 -139 -34 -138 -9 -138 24 0 76 76 174 256
107 196 185 413 223 619 24 129 23 417 -1 550 -96 528 -435 933 -985 1174
-103 46 -234 96 -506 194 -217 79 -320 119 -385 152 -52 26 -75 31 -84 16z"/>
<path d="M6386 3753 c-17 -237 -79 -500 -173 -736 -20 -48 -33 -91 -29 -94 12
-12 123 18 193 52 39 19 102 59 140 88 96 74 95 74 87 40 -58 -235 -292 -768
-487 -1108 -111 -193 -324 -542 -359 -587 -78 -100 -166 -107 -383 -33 -117
40 -153 48 -215 48 -121 1 -200 -44 -200 -114 l0 -37 -107 -4 c-140 -5 -196
-30 -231 -100 -17 -34 -22 -56 -17 -78 7 -33 50 -90 67 -90 6 0 26 18 45 40
59 69 226 132 304 115 37 -8 37 -20 -1 -40 -112 -58 -170 -175 -120 -245 21
-30 84 -60 125 -60 22 0 25 4 25 39 0 31 7 46 32 72 89 88 279 124 703 132
538 10 805 -41 805 -154 0 -27 3 -30 23 -24 69 21 128 104 135 189 11 140
-128 199 -454 194 -139 -2 -164 0 -187 15 -15 10 -27 27 -27 38 0 41 12 59
356 529 389 532 476 669 528 829 29 87 56 215 56 261 l0 31 56 -46 c105 -85
267 -165 289 -143 4 3 -14 43 -39 89 -60 111 -101 218 -131 336 -27 103 -55
294 -55 367 0 49 0 49 -95 61 -117 16 -343 89 -536 176 -61 27 -112 49 -114
49 -1 0 -5 -44 -9 -97z"/>
</g>
</svg>
