<svg width="147" height="101" viewBox="0 0 147 101" fill="none" xmlns="http://www.w3.org/2000/svg">
<path d="M90.6775 12.3225C88.3635 9.99014 85.6098 8.14 82.5759 6.87922C79.5419 5.61843 76.288 4.97205 73.0025 4.9775C69.7163 4.97236 66.4617 5.61886 63.427 6.87961C60.3923 8.14035 57.6377 9.99032 55.3225 12.3225C45.575 22.0675 45.575 37.93 55.3225 47.6775C57.6377 50.0103 60.3927 51.8607 63.4279 53.1214C66.4632 54.3822 69.7183 55.0284 73.005 55.0225C76.2903 55.0283 79.5441 54.3823 82.5781 53.1219C85.612 51.8616 88.3658 50.0119 90.68 47.68C100.428 37.935 100.428 22.0725 90.6775 12.3225V12.3225ZM73.4525 10H72.555C72.7075 9.9975 72.8525 9.9775 73.005 9.9775C73.1575 9.9775 73.3 9.9975 73.4525 10ZM88.6075 42.5H83L79.855 48.79C77.6611 49.6005 75.3414 50.0178 73.0025 50.0225C70.6593 50.0182 68.3353 49.6001 66.1375 48.7875L63 42.525H57.4125C55.3511 39.9622 53.957 36.9284 53.355 33.695L58 27.5L54.96 21.4175C55.93 19.354 57.2485 17.4731 58.8575 15.8575C61.1095 13.5976 63.8697 11.9098 66.9075 10.935L73 15L79.095 10.9375C82.1319 11.913 84.8918 13.5998 87.145 15.8575C88.7523 17.4712 90.0698 19.3494 91.04 21.41L88 27.5L92.645 33.695C92.0457 36.918 90.6587 39.9428 88.6075 42.5Z" fill="#FF616F"/>
<path d="M64.25 27.5L68 37.5H78L81.75 27.5L73 21.25L64.25 27.5Z" fill="#212121"/>
<path d="M64.25 27.5L68 37.5H78L81.75 27.5L73 21.25L64.25 27.5Z" fill="#212121"/>
<path d="M73 14.5V21.5" stroke="black"/>
<path d="M64.5 27.5H58M81.5 27.5H88M78 37.5L82.5 42.5M68 37.5L63 42.5" stroke="black"/>
<path d="M10.98 89.42C10.98 91.724 10.524 93.692 9.612 95.324C8.7 96.956 7.428 98.204 5.796 99.068C4.188 99.956 2.316 100.436 0.18 100.508V95.432C1.812 95.336 3.144 94.832 4.176 93.92C5.208 93.008 5.724 91.472 5.724 89.312V68.504H10.98V89.42ZM25.8621 68.504C28.0941 68.504 29.9781 68.876 31.5141 69.62C33.0501 70.34 34.2141 71.372 35.0061 72.716C35.8221 74.036 36.2301 75.608 36.2301 77.432C36.2301 78.512 36.0621 79.592 35.7261 80.672C35.4141 81.752 34.8861 82.736 34.1421 83.624C33.4221 84.512 32.4621 85.232 31.2621 85.784C30.0621 86.312 28.5741 86.576 26.7981 86.576H23.0541V95H17.8341V68.504H25.8621ZM26.7621 81.536C27.8181 81.536 28.6341 81.32 29.2101 80.888C29.8101 80.432 30.2301 79.904 30.4701 79.304C30.7101 78.68 30.8301 78.116 30.8301 77.612C30.8301 77.324 30.7821 76.964 30.6861 76.532C30.6141 76.076 30.4461 75.62 30.1821 75.164C29.9181 74.708 29.5101 74.324 28.9581 74.012C28.4301 73.7 27.7101 73.544 26.7981 73.544H23.0541V81.536H26.7621ZM31.6581 84.776L38.2101 95H32.1261L25.4301 84.92L31.6581 84.776ZM41.0378 84.56H47.8058V88.952H41.0378V84.56ZM67.6657 74.912C66.6577 74.36 65.6257 73.904 64.5697 73.544C63.5377 73.184 62.5657 73.004 61.6537 73.004C60.5257 73.004 59.6377 73.232 58.9897 73.688C58.3417 74.144 58.0177 74.828 58.0177 75.74C58.0177 76.364 58.2577 76.928 58.7377 77.432C59.2417 77.912 59.8777 78.344 60.6457 78.728C61.4377 79.112 62.2537 79.46 63.0937 79.772C64.1257 80.156 65.1217 80.648 66.0817 81.248C67.0417 81.824 67.8337 82.628 68.4577 83.66C69.0817 84.668 69.3937 86.012 69.3937 87.692C69.3937 89.036 69.0457 90.284 68.3497 91.436C67.6537 92.588 66.6337 93.524 65.2897 94.244C63.9457 94.94 62.2897 95.288 60.3217 95.288C58.8097 95.288 57.2617 95.06 55.6777 94.604C54.1177 94.148 52.6417 93.428 51.2497 92.444L53.5537 88.376C54.4657 89.048 55.5097 89.6 56.6857 90.032C57.8617 90.464 58.9177 90.68 59.8537 90.68C60.4777 90.68 61.1017 90.596 61.7257 90.428C62.3737 90.236 62.9017 89.924 63.3097 89.492C63.7417 89.06 63.9577 88.46 63.9577 87.692C63.9577 87.164 63.7777 86.684 63.4177 86.252C63.0817 85.82 62.6137 85.424 62.0137 85.064C61.4377 84.704 60.8017 84.392 60.1057 84.128C59.2897 83.816 58.4497 83.456 57.5857 83.048C56.7217 82.64 55.9057 82.148 55.1377 81.572C54.3937 80.972 53.7817 80.24 53.3017 79.376C52.8457 78.488 52.6177 77.408 52.6177 76.136C52.6177 74.6 52.9537 73.268 53.6257 72.14C54.3217 71.012 55.2937 70.124 56.5417 69.476C57.7897 68.804 59.2297 68.432 60.8617 68.36C62.9977 68.36 64.7257 68.612 66.0457 69.116C67.3897 69.62 68.5897 70.22 69.6457 70.916L67.6657 74.912ZM75.1539 72.356H80.1939V79.196H84.0099V83.12H80.1939V95H75.1539V83.12H72.7059V79.196H75.1539V72.356ZM86.6219 86.936C86.6219 85.328 86.9939 83.888 87.7379 82.616C88.5059 81.344 89.5739 80.348 90.9419 79.628C92.3099 78.884 93.8819 78.512 95.6579 78.512C97.4579 78.512 99.0179 78.884 100.338 79.628C101.658 80.348 102.666 81.344 103.362 82.616C104.082 83.888 104.442 85.328 104.442 86.936C104.442 88.544 104.082 89.996 103.362 91.292C102.666 92.564 101.658 93.572 100.338 94.316C99.0179 95.06 97.4339 95.432 95.5859 95.432C93.8579 95.432 92.3099 95.096 90.9419 94.424C89.5979 93.752 88.5419 92.78 87.7739 91.508C87.0059 90.236 86.6219 88.712 86.6219 86.936ZM91.6979 86.972C91.6979 87.788 91.8659 88.532 92.2019 89.204C92.5379 89.852 92.9939 90.368 93.5699 90.752C94.1459 91.136 94.7939 91.328 95.5139 91.328C96.6899 91.328 97.6259 90.92 98.3219 90.104C99.0179 89.264 99.3659 88.22 99.3659 86.972C99.3659 85.724 99.0179 84.692 98.3219 83.876C97.6259 83.036 96.6899 82.616 95.5139 82.616C94.7939 82.616 94.1459 82.808 93.5699 83.192C92.9939 83.576 92.5379 84.092 92.2019 84.74C91.8659 85.388 91.6979 86.132 91.6979 86.972ZM112.948 79.268L113.416 83.588L113.308 82.94C113.764 82.004 114.388 81.212 115.18 80.564C115.972 79.892 116.752 79.376 117.52 79.016C118.312 78.656 118.912 78.476 119.32 78.476L119.068 83.516C117.892 83.372 116.884 83.564 116.044 84.092C115.204 84.62 114.556 85.316 114.1 86.18C113.644 87.044 113.416 87.932 113.416 88.844V95H108.412V79.268H112.948ZM130.215 95.432C128.295 95.432 126.663 95.072 125.319 94.352C123.999 93.632 122.991 92.636 122.295 91.364C121.599 90.092 121.251 88.628 121.251 86.972C121.251 85.388 121.659 83.96 122.475 82.688C123.291 81.416 124.383 80.408 125.751 79.664C127.119 78.896 128.643 78.512 130.323 78.512C132.579 78.512 134.427 79.172 135.867 80.492C137.331 81.788 138.279 83.672 138.711 86.144L126.471 90.032L125.355 87.296L134.211 84.308L133.167 84.776C132.975 84.152 132.627 83.612 132.123 83.156C131.643 82.676 130.911 82.436 129.927 82.436C128.799 82.436 127.899 82.82 127.227 83.588C126.555 84.356 126.219 85.388 126.219 86.684C126.219 88.148 126.615 89.264 127.407 90.032C128.199 90.776 129.171 91.148 130.323 91.148C130.875 91.148 131.403 91.052 131.907 90.86C132.435 90.668 132.951 90.416 133.455 90.104L135.687 93.848C134.847 94.328 133.935 94.712 132.951 95C131.991 95.288 131.079 95.432 130.215 95.432Z" fill="#C4001D"/>
</svg>
